<svg width="68" height="68" viewBox="0 0 68 68" fill="none" xmlns="http://www.w3.org/2000/svg">
<rect width="68" height="68" rx="34" fill="black"/>
<path d="M32.4648 15.1131C30.4779 15.5781 29.0687 16.6209 27.9696 18.4457L27.8569 18.6289L27.42 18.495C26.1236 18.0934 24.4467 18.2273 23.2348 18.8332C21.6988 19.6083 20.5856 21.0386 20.1558 22.7789C19.9656 23.568 19.9444 24.9842 20.1206 25.7029C20.5645 27.5137 21.6284 28.9862 23.101 29.8106L23.6928 30.1417V35.4613C23.6928 38.9701 23.7139 40.8232 23.7633 40.9148C23.9465 41.253 24.0169 41.26 27.6385 41.26C30.5202 41.26 37.7971 41.26 37.7971 41.26C38.0888 41.26 39.8925 40.5977 39.8925 40.2313C39.8925 39.9988 37.8901 40.3934 37.728 40.2313L42.7302 39.7804H28.1739H25.1724V38.794V37.8076H34.0854H42.9983V38.794V39.7804H40.0109H37.0234L36.805 39.9636C36.5373 40.189 36.4598 40.5272 36.6148 40.8302C36.8403 41.267 36.798 41.26 40.5323 41.26C44.1538 41.26 44.2242 41.253 44.4074 40.9148C44.4568 40.8232 44.4779 38.9701 44.4779 35.4684V30.1558L44.9218 29.9374C46.4789 29.1694 47.6555 27.6123 48.1206 25.7029C48.2967 24.9842 48.2756 23.568 48.0853 22.7789C47.416 20.0663 45.2107 18.2907 42.5051 18.2766C41.7723 18.2696 40.8916 18.4105 40.3913 18.6007C40.3209 18.6289 40.2293 18.5444 40.1095 18.3119C39.877 17.8609 39.2288 17.0577 38.799 16.6772C38.0521 16.0079 37.1855 15.5429 36.0934 15.2117C35.572 15.0567 35.3395 15.0285 34.2615 15.0074C33.2399 14.9862 32.9298 15.0074 32.4648 15.1131ZM35.8468 16.6984C37.3335 17.1986 38.3974 18.1498 39.0879 19.5942C39.5177 20.496 39.722 20.5736 40.6098 20.1649C41.2932 19.8549 41.7864 19.7421 42.4698 19.7492C44.4004 19.7562 45.9927 21.0174 46.5987 23.0114C46.7255 23.4201 46.7607 23.7089 46.7607 24.2796C46.7537 25.1885 46.6269 25.717 46.1971 26.5907C45.9505 27.105 45.7673 27.3587 45.3727 27.7532C44.5272 28.5987 43.5831 29.0003 42.4558 29.0003C41.7441 29.0003 41.265 28.9017 40.6802 28.641C40.18 28.4155 39.8347 28.3803 39.5881 28.5423C39.2217 28.7819 39.1795 29.3949 39.4965 29.6908C39.7079 29.8881 40.5323 30.2263 41.1523 30.3672C41.4271 30.4306 41.9555 30.4799 42.3219 30.4799H42.9983V33.4039V36.3279H40.3561H37.7139V34.3481V32.3682L37.5096 32.1639C37.27 31.9243 36.8614 31.8821 36.5937 32.0723C36.2695 32.3048 36.2343 32.5232 36.2343 34.496V36.3279H34.0501H31.8659V34.3622C31.8659 32.4105 31.8659 32.3893 31.7039 32.2062C31.5911 32.0652 31.4573 32.0089 31.2248 31.9807C30.9359 31.9455 30.8725 31.9666 30.6611 32.1568L30.4215 32.3682L30.4004 34.3481L30.3793 36.3279H27.7794H25.1724V33.4039V30.4799H25.8981C26.9761 30.4799 28.2937 30.1136 28.7446 29.6908C29.0617 29.3878 29.0124 28.7819 28.653 28.5423C28.4064 28.3803 28.0612 28.4155 27.5609 28.641C26.9761 28.9017 26.497 29.0003 25.7854 29.0003C24.6581 29.0003 23.7139 28.5987 22.8684 27.7532C22.4739 27.3587 22.2907 27.105 22.0441 26.5907C21.6073 25.7029 21.4804 25.1885 21.4804 24.2796C21.4804 22.9973 21.9384 21.877 22.8121 21.0033C23.5308 20.2847 24.2847 19.9112 25.2992 19.7703C26.025 19.6717 26.8211 19.8056 27.5469 20.1508C28.4417 20.5806 28.653 20.5031 29.0828 19.5942C29.7381 18.2273 30.6188 17.3748 31.9434 16.8393C32.7114 16.5222 33.1483 16.4588 34.2615 16.487C35.1422 16.5081 35.3606 16.5363 35.8468 16.6984Z" fill="#84C921"/>
<path d="M29.4307 45.3327C28.8228 45.4326 28.1065 45.7158 27.307 46.1655C25.8079 47.0066 24.9668 47.2482 23.3511 47.2981C22.6681 47.3148 22.0019 47.3731 21.8769 47.4231C21.2273 47.6729 20.8442 48.5391 21.0608 49.2636C21.2856 50.0548 23.526 51.7788 25.3748 52.5949C27.1987 53.4111 29.4391 53.4528 31.2047 52.7199C32.0375 52.3701 33.1285 51.6372 33.9197 50.8876L34.5526 50.2797L35.1856 50.8876C36.3682 52.012 37.8423 52.8448 39.1249 53.1196C39.4247 53.1779 40.1076 53.2362 40.6406 53.2362C41.74 53.2362 42.7311 53.028 43.7971 52.5783C45.4877 51.8537 47.8197 50.0382 48.0445 49.2636C48.1944 48.7639 48.0862 48.2143 47.778 47.8561C47.3616 47.3814 47.1701 47.3231 46.0457 47.3231C44.4384 47.3231 43.314 47.015 41.7816 46.1488C40.3658 45.3493 39.1499 45.1078 37.9006 45.3576C36.7763 45.5825 35.9268 46.0406 35.0357 46.89L34.5526 47.3481L34.0696 46.89C32.7121 45.5992 31.0964 45.0495 29.4307 45.3327ZM31.0131 47.1149C31.2796 47.1899 31.6877 47.3481 31.9042 47.4647C32.3706 47.7229 33.3867 48.614 33.3867 48.7722C33.3867 48.9222 32.4456 49.8549 31.8459 50.3047C30.7383 51.1208 29.7139 51.4873 28.498 51.4873C27.6068 51.4873 26.749 51.2874 25.8412 50.871C25.1666 50.5545 24.0756 49.8549 23.526 49.3802L23.1928 49.0971L23.984 49.0471C25.2832 48.9638 26.2576 48.664 27.7734 47.8978C29.564 46.9983 30.072 46.8734 31.0131 47.1149ZM39.3997 47.0816C39.6413 47.1316 40.4824 47.4814 41.2569 47.8728C42.856 48.664 43.8221 48.9638 45.1213 49.0471L45.9125 49.0971L45.5793 49.3802C45.0297 49.8549 43.9387 50.5545 43.2641 50.871C42.3563 51.2874 41.4985 51.4873 40.6073 51.4873C39.3914 51.4873 38.3753 51.1292 37.2427 50.288C36.6431 49.8549 35.7186 48.9305 35.7186 48.7722C35.7186 48.614 36.7347 47.7229 37.2011 47.4647C37.6341 47.2315 38.367 47.0066 38.7335 46.9983C38.8584 46.99 39.1582 47.0316 39.3997 47.0816Z" fill="#84C921"/>
</svg>
