<svg width="268" height="50" viewBox="0 0 268 50" fill="none" xmlns="http://www.w3.org/2000/svg">
<g clip-path="url(#clip0_34_8)">
<path d="M115.609 0.259758C112.855 0.904289 110.902 2.3496 109.379 4.87889L109.223 5.1328L108.617 4.94725C106.82 4.39061 104.496 4.57616 102.816 5.416C100.687 6.49022 99.1444 8.47265 98.5487 10.8848C98.2851 11.9785 98.2558 13.9414 98.4999 14.9375C99.1151 17.4473 100.59 19.4883 102.631 20.6308L103.451 21.0898V28.4629C103.451 33.3262 103.48 35.8945 103.549 36.0215C103.803 36.4902 103.9 36.5 108.92 36.5C112.914 36.5 123 36.5 123 36.5C123.404 36.5 125.904 35.582 125.904 35.0742C125.904 34.752 123.129 35.2988 122.904 35.0742L129.837 34.4492H109.662H105.502V33.082V31.7148H117.855H130.209V33.082V34.4492H126.068H121.928L121.625 34.7031C121.254 35.0156 121.146 35.4844 121.361 35.9043C121.674 36.5098 121.615 36.5 126.791 36.5C131.81 36.5 131.908 36.4902 132.162 36.0215C132.23 35.8945 132.26 33.3262 132.26 28.4726V21.1094L132.875 20.8066C135.033 19.7422 136.664 17.584 137.308 14.9375C137.553 13.9414 137.523 11.9785 137.26 10.8848C136.332 7.12499 133.275 4.66405 129.525 4.64452C128.51 4.63475 127.289 4.83007 126.596 5.09374C126.498 5.1328 126.371 5.01561 126.205 4.69335C125.883 4.06835 124.984 2.95507 124.389 2.42773C123.353 1.49999 122.152 0.855461 120.639 0.396477C119.916 0.181633 119.594 0.142571 118.1 0.113274C116.683 0.0839767 116.254 0.113274 115.609 0.259758ZM120.297 2.45702C122.357 3.15038 123.832 4.46874 124.789 6.47069C125.385 7.72069 125.668 7.82811 126.898 7.26171C127.846 6.83202 128.529 6.67577 129.476 6.68554C132.152 6.6953 134.359 8.44335 135.199 11.207C135.375 11.7734 135.424 12.1738 135.424 12.9648C135.414 14.2246 135.238 14.957 134.642 16.168C134.301 16.8808 134.047 17.2324 133.5 17.7793C132.328 18.9512 131.019 19.5078 129.457 19.5078C128.471 19.5078 127.807 19.3711 126.996 19.0098C126.303 18.6973 125.824 18.6484 125.482 18.873C124.975 19.2051 124.916 20.0547 125.355 20.4648C125.648 20.7383 126.791 21.207 127.65 21.4023C128.031 21.4902 128.764 21.5586 129.271 21.5586H130.209V25.6113V29.6641H126.547H122.885V26.9199V24.1758L122.601 23.8926C122.269 23.5605 121.703 23.5019 121.332 23.7656C120.883 24.0879 120.834 24.3906 120.834 27.125V29.6641H117.807H114.779V26.9394C114.779 24.2344 114.779 24.2051 114.555 23.9512C114.398 23.7559 114.213 23.6777 113.891 23.6387C113.49 23.5898 113.402 23.6191 113.109 23.8828L112.777 24.1758L112.748 26.9199L112.719 29.6641H109.115H105.502V25.6113V21.5586H106.508C108.002 21.5586 109.828 21.0508 110.453 20.4648C110.892 20.0449 110.824 19.2051 110.326 18.873C109.984 18.6484 109.506 18.6973 108.812 19.0098C108.002 19.3711 107.338 19.5078 106.351 19.5078C104.789 19.5078 103.48 18.9512 102.308 17.7793C101.762 17.2324 101.508 16.8808 101.166 16.168C100.56 14.9375 100.385 14.2246 100.385 12.9648C100.385 11.1875 101.019 9.63475 102.23 8.42382C103.226 7.42772 104.271 6.91014 105.678 6.71483C106.683 6.57811 107.787 6.76366 108.793 7.24218C110.033 7.83788 110.326 7.73046 110.922 6.47069C111.83 4.57616 113.051 3.39452 114.887 2.65234C115.951 2.21288 116.557 2.12499 118.1 2.16405C119.32 2.19335 119.623 2.23241 120.297 2.45702Z" fill="#84C921"/>
<path d="M111.994 40.7324C111.281 40.8496 110.441 41.1816 109.504 41.709C107.746 42.6953 106.76 42.9785 104.865 43.0371C104.064 43.0566 103.283 43.125 103.137 43.1836C102.375 43.4765 101.926 44.4922 102.18 45.3418C102.443 46.2695 105.07 48.291 107.238 49.248C109.377 50.2051 112.004 50.2539 114.074 49.3945C115.051 48.9844 116.33 48.125 117.258 47.2461L118 46.5332L118.742 47.2461C120.129 48.5644 121.857 49.541 123.361 49.8633C123.713 49.9316 124.514 50 125.139 50C126.428 50 127.59 49.7558 128.84 49.2285C130.822 48.3789 133.557 46.25 133.82 45.3418C133.996 44.7558 133.869 44.1113 133.508 43.6914C133.02 43.1348 132.795 43.0664 131.477 43.0664C129.592 43.0664 128.273 42.7051 126.477 41.6894C124.816 40.7519 123.391 40.4687 121.926 40.7617C120.607 41.0254 119.611 41.5625 118.566 42.5586L118 43.0957L117.434 42.5586C115.842 41.0449 113.947 40.4004 111.994 40.7324ZM113.85 42.8223C114.162 42.9101 114.641 43.0957 114.895 43.2324C115.441 43.5351 116.633 44.5801 116.633 44.7656C116.633 44.9414 115.529 46.0351 114.826 46.5625C113.527 47.5195 112.326 47.9492 110.9 47.9492C109.855 47.9492 108.85 47.7148 107.785 47.2265C106.994 46.8555 105.715 46.0351 105.07 45.4785L104.68 45.1465L105.607 45.0879C107.131 44.9902 108.273 44.6387 110.051 43.7402C112.15 42.6855 112.746 42.539 113.85 42.8223ZM123.684 42.7832C123.967 42.8418 124.953 43.2519 125.861 43.7109C127.736 44.6387 128.869 44.9902 130.393 45.0879L131.32 45.1465L130.93 45.4785C130.285 46.0351 129.006 46.8555 128.215 47.2265C127.15 47.7148 126.145 47.9492 125.1 47.9492C123.674 47.9492 122.482 47.5293 121.154 46.543C120.451 46.0351 119.367 44.9512 119.367 44.7656C119.367 44.5801 120.559 43.5351 121.105 43.2324C121.613 42.959 122.473 42.6953 122.902 42.6855C123.049 42.6758 123.4 42.7246 123.684 42.7832Z" fill="#84C921"/>
</g>
<path d="M12.2869 30.3636C12.1863 29.3516 11.7395 28.5466 10.9464 27.9489C10.1533 27.3511 9.15601 27.0522 7.95455 27.0522C7.10819 27.0522 6.36245 27.1972 5.71733 27.4872C5.07813 27.7772 4.57505 28.1797 4.2081 28.6946C3.84706 29.2036 3.66655 29.7836 3.66655 30.4347C3.66655 30.9141 3.77012 31.3343 3.97727 31.6953C4.18442 32.0563 4.46259 32.3671 4.81179 32.6275C5.1669 32.882 5.55753 33.101 5.98366 33.2844C6.41572 33.4679 6.85073 33.6218 7.28871 33.7461L9.20632 34.2965C9.78634 34.4563 10.3664 34.6605 10.9464 34.9091C11.5264 35.1577 12.0561 35.4714 12.5355 35.8501C13.0208 36.223 13.4085 36.6817 13.6985 37.2262C13.9944 37.7648 14.1424 38.4129 14.1424 39.1705C14.1424 40.1411 13.8909 41.0141 13.3878 41.7894C12.8847 42.5647 12.1626 43.1803 11.2216 43.636C10.2805 44.0858 9.15305 44.3107 7.83913 44.3107C6.60215 44.3107 5.52794 44.1065 4.61648 43.6982C3.70502 43.2839 2.98887 42.7127 2.46804 41.9847C1.94721 41.2567 1.65424 40.4134 1.58913 39.4545H3.29368C3.35286 40.1707 3.58961 40.7773 4.00391 41.2745C4.41821 41.7717 4.95679 42.1504 5.61967 42.4109C6.28255 42.6654 7.02237 42.7926 7.83913 42.7926C8.74467 42.7926 9.5496 42.6417 10.2539 42.3398C10.9641 42.0321 11.5205 41.6059 11.9229 41.0614C12.3313 40.511 12.5355 39.8718 12.5355 39.1438C12.5355 38.5283 12.3757 38.0134 12.0561 37.5991C11.7365 37.1789 11.2897 36.8267 10.7156 36.5426C10.1474 36.2585 9.48745 36.007 8.7358 35.788L6.56072 35.1488C5.13435 34.7227 4.02758 34.1338 3.24041 33.3821C2.45324 32.6304 2.05966 31.6716 2.05966 30.5057C2.05966 29.5291 2.32008 28.6709 2.84091 27.9311C3.36766 27.1854 4.07789 26.6054 4.97159 26.1911C5.87121 25.7708 6.88033 25.5607 7.99894 25.5607C9.12938 25.5607 10.1296 25.7679 10.9996 26.1822C11.8697 26.5965 12.5592 27.1676 13.0682 27.8956C13.5831 28.6177 13.8583 29.4403 13.8938 30.3636H12.2869ZM18.1374 25.8182H20.055L26.6513 41.6562H26.8111L33.4073 25.8182H35.3249V44H33.7624V29.3249H33.6204L27.4858 44H25.9766L19.842 29.3249H19.6999V44H18.1374V25.8182ZM40.1855 44H38.4455L45.0595 25.8182H46.835L53.449 44H51.709L46.0094 27.9755H45.8851L40.1855 44ZM41.4373 37.0309H50.4572V38.5224H41.4373V37.0309ZM56.5652 44V25.8182H62.4334C63.7237 25.8182 64.8008 26.052 65.665 26.5195C66.535 26.9812 67.189 27.6233 67.627 28.446C68.0708 29.2628 68.2928 30.2009 68.2928 31.2603C68.2928 32.3197 68.0708 33.2549 67.627 34.0657C67.189 34.8765 66.5379 35.5098 65.6738 35.9656C64.8097 36.4213 63.7385 36.6491 62.46 36.6491H57.4618V35.131H62.4157C63.3626 35.131 64.1498 34.9742 64.7772 34.6605C65.4105 34.3468 65.881 33.9 66.1887 33.32C66.5024 32.7399 66.6593 32.0534 66.6593 31.2603C66.6593 30.4672 66.5024 29.7747 66.1887 29.1829C65.8751 28.5851 65.4016 28.1235 64.7683 27.7979C64.1409 27.4724 63.3478 27.3097 62.389 27.3097H58.2253V44H56.5652ZM64.5819 35.7969L69.0563 44H67.1387L62.7086 35.7969H64.5819ZM71.2358 27.3097V25.8182H84.4194V27.3097H78.6577V44H76.9975V27.3097H71.2358Z" fill="black"/>
<path d="M167.655 31.5H165.986C165.862 30.8786 165.637 30.3045 165.311 29.7777C164.991 29.245 164.589 28.7804 164.104 28.3839C163.618 27.9873 163.068 27.6796 162.452 27.4606C161.837 27.2416 161.171 27.1321 160.455 27.1321C159.307 27.1321 158.259 27.431 157.312 28.0288C156.371 28.6265 155.616 29.5054 155.048 30.6655C154.486 31.8196 154.205 33.2341 154.205 34.9091C154.205 36.5959 154.486 38.0163 155.048 39.1705C155.616 40.3246 156.371 41.2005 157.312 41.7983C158.259 42.3902 159.307 42.6861 160.455 42.6861C161.171 42.6861 161.837 42.5766 162.452 42.3576C163.068 42.1386 163.618 41.8338 164.104 41.4432C164.589 41.0466 164.991 40.582 165.311 40.0494C165.637 39.5167 165.862 38.9396 165.986 38.3182H167.655C167.507 39.1527 167.229 39.931 166.82 40.6531C166.418 41.3692 165.903 41.9966 165.276 42.5352C164.654 43.0737 163.938 43.494 163.127 43.7958C162.316 44.0977 161.426 44.2486 160.455 44.2486C158.928 44.2486 157.573 43.8668 156.389 43.1033C155.205 42.3339 154.276 41.2508 153.601 39.854C152.932 38.4573 152.598 36.8089 152.598 34.9091C152.598 33.0092 152.932 31.3609 153.601 29.9641C154.276 28.5674 155.205 27.4872 156.389 26.7237C157.573 25.9543 158.928 25.5696 160.455 25.5696C161.426 25.5696 162.316 25.7205 163.127 26.0224C163.938 26.3183 164.654 26.7385 165.276 27.283C165.903 27.8216 166.418 28.449 166.82 29.1651C167.229 29.8813 167.507 30.6596 167.655 31.5ZM186.46 34.9091C186.46 36.803 186.123 38.4513 185.448 39.854C184.774 41.2508 183.844 42.3339 182.661 43.1033C181.483 43.8668 180.127 44.2486 178.595 44.2486C177.062 44.2486 175.703 43.8668 174.52 43.1033C173.342 42.3339 172.416 41.2508 171.741 39.854C171.072 38.4513 170.738 36.803 170.738 34.9091C170.738 33.0152 171.072 31.3698 171.741 29.973C172.416 28.5703 173.345 27.4872 174.528 26.7237C175.712 25.9543 177.068 25.5696 178.595 25.5696C180.127 25.5696 181.483 25.9543 182.661 26.7237C183.844 27.4872 184.774 28.5703 185.448 29.973C186.123 31.3698 186.46 33.0152 186.46 34.9091ZM184.845 34.9091C184.845 33.2815 184.572 31.8877 184.028 30.7276C183.483 29.5617 182.741 28.6709 181.799 28.0554C180.858 27.4399 179.79 27.1321 178.595 27.1321C177.405 27.1321 176.34 27.4399 175.399 28.0554C174.457 28.6709 173.712 29.5587 173.161 30.7188C172.617 31.8788 172.345 33.2756 172.345 34.9091C172.345 36.5367 172.617 37.9305 173.161 39.0906C173.706 40.2506 174.449 41.1413 175.39 41.7628C176.331 42.3783 177.399 42.6861 178.595 42.6861C179.79 42.6861 180.858 42.3783 181.799 41.7628C182.746 41.1473 183.492 40.2595 184.037 39.0994C184.581 37.9335 184.85 36.5367 184.845 34.9091ZM205.381 34.9091C205.381 36.803 205.044 38.4513 204.369 39.854C203.694 41.2508 202.765 42.3339 201.581 43.1033C200.404 43.8668 199.048 44.2486 197.515 44.2486C195.983 44.2486 194.624 43.8668 193.441 43.1033C192.263 42.3339 191.336 41.2508 190.662 39.854C189.993 38.4513 189.659 36.803 189.659 34.9091C189.659 33.0152 189.993 31.3698 190.662 29.973C191.336 28.5703 192.266 27.4872 193.449 26.7237C194.633 25.9543 195.988 25.5696 197.515 25.5696C199.048 25.5696 200.404 25.9543 201.581 26.7237C202.765 27.4872 203.694 28.5703 204.369 29.973C205.044 31.3698 205.381 33.0152 205.381 34.9091ZM203.765 34.9091C203.765 33.2815 203.493 31.8877 202.949 30.7276C202.404 29.5617 201.661 28.6709 200.72 28.0554C199.779 27.4399 198.711 27.1321 197.515 27.1321C196.326 27.1321 195.26 27.4399 194.319 28.0554C193.378 28.6709 192.633 29.5587 192.082 30.7188C191.538 31.8788 191.265 33.2756 191.265 34.9091C191.265 36.5367 191.538 37.9305 192.082 39.0906C192.627 40.2506 193.369 41.1413 194.311 41.7628C195.252 42.3783 196.32 42.6861 197.515 42.6861C198.711 42.6861 199.779 42.3783 200.72 41.7628C201.667 41.1473 202.413 40.2595 202.958 39.0994C203.502 37.9335 203.771 36.5367 203.765 34.9091ZM209.396 44V25.8182H211.056V35.6104H211.216L220.094 25.8182H222.278L214.51 34.2255L222.242 44H220.218L213.48 35.3796L211.056 38.0962V44H209.396ZM227.072 25.8182V44H225.412V25.8182H227.072ZM246.066 25.8182V44H244.45L233.708 28.7745H233.566V44H231.906V25.8182H233.513L244.291 41.0614H244.433V25.8182H246.066ZM263.48 31.5C263.314 30.8963 263.072 30.3311 262.752 29.8043C262.432 29.2717 262.036 28.8071 261.562 28.4105C261.095 28.008 260.553 27.6944 259.938 27.4695C259.328 27.2446 258.648 27.1321 257.896 27.1321C256.712 27.1321 255.653 27.4399 254.718 28.0554C253.782 28.6709 253.043 29.5587 252.498 30.7188C251.96 31.8788 251.69 33.2756 251.69 34.9091C251.69 36.5367 251.963 37.9305 252.507 39.0906C253.052 40.2506 253.797 41.1413 254.744 41.7628C255.697 42.3783 256.786 42.6861 258.011 42.6861C259.13 42.6861 260.118 42.4375 260.976 41.9403C261.835 41.4432 262.503 40.733 262.983 39.8097C263.468 38.8864 263.705 37.7885 263.693 36.516L264.226 36.6847H258.402V35.1932H265.309V36.6847C265.309 38.2353 264.995 39.5759 264.368 40.7063C263.74 41.8368 262.879 42.7098 261.784 43.3253C260.689 43.9408 259.432 44.2486 258.011 44.2486C256.425 44.2486 255.037 43.8668 253.848 43.1033C252.658 42.3339 251.732 41.2508 251.069 39.854C250.412 38.4513 250.083 36.803 250.083 34.9091C250.083 33.4827 250.273 32.1954 250.652 31.0472C251.03 29.899 251.566 28.9165 252.258 28.0998C252.957 27.283 253.782 26.6586 254.735 26.2266C255.688 25.7886 256.742 25.5696 257.896 25.5696C258.89 25.5696 259.799 25.7264 260.621 26.0401C261.45 26.3538 262.178 26.7859 262.805 27.3363C263.439 27.8808 263.956 28.5111 264.359 29.2273C264.767 29.9375 265.043 30.6951 265.185 31.5H263.48Z" fill="black"/>
<defs>
<clipPath id="clip0_34_8">
<rect width="50" height="50" fill="white" transform="translate(93)"/>
</clipPath>
</defs>
</svg>
