<svg width="50" height="50" viewBox="0 0 50 50" fill="none" xmlns="http://www.w3.org/2000/svg">
<path d="M23.291 2.19727C20.2734 2.75391 17.6758 4.81445 16.3965 7.65625C16.2109 8.06641 16.0254 8.37891 15.9668 8.35938C14.2285 7.54883 13.1445 7.29492 11.4258 7.29492C9.78517 7.29492 8.75978 7.51953 7.37306 8.19336C3.91603 9.88281 1.92384 13.2129 2.08009 17.041C2.18751 19.6484 3.10548 21.6895 5.00978 23.4961C6.01564 24.4531 7.01173 25.0781 8.19337 25.498C8.76954 25.6934 8.95509 25.8105 9.01368 25.9863C9.05275 26.1133 9.60939 29.043 10.2539 32.4902L11.4258 38.7598V43.0273V47.2852L11.7578 47.6172L12.0899 47.9492H25H37.9102L38.2422 47.6172L38.5742 47.2852V43.0273V38.7598L39.7461 32.4902C40.3906 29.043 40.9473 26.1133 40.9863 25.9863C41.0449 25.8105 41.2305 25.6934 41.8067 25.498C42.9883 25.0781 43.9844 24.4531 44.9902 23.4961C46.8945 21.6895 47.8125 19.6484 47.9199 17.041C48.0567 13.916 46.6992 11.0254 44.2481 9.16016C43.3692 8.49609 41.8359 7.76367 40.7715 7.50977C39.6387 7.22656 37.627 7.20703 36.5234 7.46094C35.9473 7.58789 34.7656 8.01758 34.0332 8.35938C33.9844 8.37891 33.7793 8.05664 33.5938 7.64648C32.5 5.19531 30.4297 3.33008 27.8809 2.5C26.4551 2.04102 24.7461 1.92383 23.291 2.19727ZM26.9043 4.49219C28.1738 4.89258 29.0625 5.42969 30.0391 6.39648C30.8301 7.17773 30.9961 7.40234 31.4258 8.30078C31.6992 8.87695 31.9922 9.6582 32.0801 10.0684C32.2852 11.0254 32.5195 11.2793 33.1934 11.2793C33.584 11.2793 33.7598 11.2109 34.2676 10.8594C36.1426 9.54102 38.418 9.12109 40.459 9.7168C41.4649 10.0098 41.9238 10.2246 42.7246 10.791C44.0723 11.748 45.0586 13.1543 45.5274 14.8145C45.6934 15.3906 45.7422 15.8398 45.7422 16.6504C45.7422 17.959 45.5762 18.6621 44.9512 19.9219C44.5703 20.7031 44.3555 20.9863 43.6133 21.7383C42.8613 22.4805 42.5781 22.6953 41.7969 23.0762C41.2891 23.3301 40.5859 23.6035 40.2344 23.6914C39.4336 23.8965 39.2871 23.9648 39.1309 24.2969C39.0527 24.4434 38.4473 27.4707 37.7832 31.0352L36.582 37.5H34.0137H31.4453V37.2266C31.4453 37.0801 31.6504 34.7461 31.8945 32.0312C32.207 28.6621 32.3145 26.9922 32.2656 26.7578C32.041 25.8594 30.7129 25.7324 30.2734 26.5723C30.2246 26.6602 29.9805 28.9453 29.7363 31.6504C29.4922 34.3555 29.2676 36.7773 29.2383 37.0312L29.1797 37.5H25H20.8203L20.7617 37.0312C20.7324 36.7773 20.4981 34.3555 20.2539 31.6406C19.9317 27.9883 19.7754 26.6504 19.668 26.4844C19.5801 26.3574 19.3555 26.1914 19.1699 26.1035C18.4961 25.8301 17.8223 26.1816 17.7149 26.8652C17.6856 27.0508 17.8613 29.3848 18.1055 32.0703C18.3496 34.7461 18.5547 37.0605 18.5547 37.2168V37.5H15.9863H13.418L12.2168 31.0352C11.543 27.4707 10.9473 24.4434 10.8692 24.2969C10.7129 23.9648 10.5664 23.8965 9.76564 23.6914C9.41407 23.6035 8.71095 23.3301 8.20314 23.0762C7.42189 22.6953 7.13868 22.4805 6.38673 21.7383C5.64454 20.9863 5.4297 20.7031 5.04884 19.9219C4.79493 19.4141 4.5215 18.7305 4.44337 18.4082C3.85743 16.084 4.48243 13.6426 6.14259 11.8066C7.49025 10.3027 9.36525 9.46289 11.377 9.46289C12.9981 9.45312 14.3164 9.88281 15.7715 10.8789C16.4844 11.3672 16.8067 11.4258 17.2852 11.1816C17.627 11.0059 17.8223 10.6641 17.9199 10.0586C17.959 9.81445 18.1152 9.28711 18.2715 8.88672C19.1602 6.58203 21.3965 4.74609 23.8672 4.29688C24.6387 4.16016 26.1231 4.25781 26.9043 4.49219ZM36.4258 42.7246V45.8008H25H13.5742V42.7246V39.6484H25H36.4258V42.7246Z" fill="white"/>
</svg>
